<svg width="30" height="29" viewBox="0 0 30 29" fill="none" xmlns="http://www.w3.org/2000/svg">
<path d="M15.123 28.75C22.993 28.75 29.373 22.3701 29.373 14.5C29.373 6.62994 22.993 0.25 15.123 0.25C7.25293 0.25 0.872986 6.62994 0.872986 14.5C0.872986 22.3701 7.25293 28.75 15.123 28.75Z" stroke="#041726" stroke-width="0.5"/>
<path d="M20.1602 16.2202C19.4255 16.2202 18.7041 16.1149 18.0205 15.9078C17.6855 15.8031 17.2738 15.8992 17.0693 16.0916L15.72 17.0253C14.1553 16.2597 13.1914 15.3764 12.3675 13.9528L13.3561 12.7482C13.613 12.513 13.7051 12.1696 13.5947 11.8473C13.3678 11.2174 13.2526 10.5564 13.2526 9.88269C13.2526 9.39597 12.8206 9 12.2897 9H10.086C9.555 9 9.12303 9.39597 9.12303 9.88266C9.12303 15.4614 14.0742 20 20.1602 20C20.6911 20 21.1231 19.604 21.1231 19.1173V17.1029C21.123 16.6162 20.6911 16.2202 20.1602 16.2202Z" fill="#041726"/>
</svg>
