<svg width="30" height="30" viewBox="0 0 30 30" fill="none" xmlns="http://www.w3.org/2000/svg">
<path d="M15 30C23.2843 30 30 23.2843 30 15C30 6.71573 23.2843 0 15 0C6.71573 0 0 6.71573 0 15C0 23.2843 6.71573 30 15 30Z" fill="#039BE5"/>
<path d="M13.5364 19.3118L13.7213 16.5415L18.7601 11.995C18.9811 11.7983 18.7116 11.7026 18.4179 11.8809L12.1987 15.8045L9.51246 14.9658C8.93217 14.7888 8.92824 14.3896 9.64291 14.103L20.1115 10.0653C20.5895 9.84894 21.0511 10.1801 20.8682 10.9118L19.0854 19.313C18.9607 19.9097 18.6002 20.0527 18.1005 19.7772L15.3854 17.7708L14.0793 19.0403C13.9285 19.1885 13.8078 19.3118 13.5364 19.3118Z" fill="#EFEFEF"/>
</svg>
