<svg width="30" height="30" viewBox="0 0 30 30" fill="none" xmlns="http://www.w3.org/2000/svg">
<path d="M15 30C23.2843 30 30 23.2843 30 15C30 6.71573 23.2843 0 15 0C6.71573 0 0 6.71573 0 15C0 23.2843 6.71573 30 15 30Z" fill="#7D3DAF"/>
<path d="M19.142 13.9245C19.1556 12.2813 17.7562 10.775 16.0226 10.5665C15.9852 10.5618 15.9479 10.5562 15.9107 10.5495C15.8236 10.5327 15.7353 10.5233 15.6466 10.521C15.2908 10.521 15.196 10.771 15.171 10.9194C15.1466 11.0642 15.1698 11.1864 15.2397 11.2813C15.3574 11.4409 15.5647 11.4694 15.7312 11.4921C15.7795 11.4989 15.8256 11.5051 15.8642 11.5136C17.4221 11.8619 17.9466 12.4091 18.2028 13.954C18.209 13.9915 18.2119 14.0381 18.2153 14.0875C18.2266 14.2722 18.2494 14.6563 18.6625 14.6563C18.6966 14.6563 18.734 14.6535 18.7726 14.6477C19.1567 14.5892 19.1448 14.2381 19.1392 14.0694C19.1375 14.0216 19.1357 13.9767 19.1403 13.9466C19.1412 13.9391 19.1416 13.9315 19.1415 13.9239L19.142 13.9245Z" fill="#EFEFEF"/>
<path d="M15.5457 9.96373C15.5923 9.96718 15.6355 9.97054 15.6718 9.97563C18.2304 10.3694 19.4071 11.5814 19.7326 14.1597C19.7383 14.2035 19.7395 14.2569 19.74 14.3132C19.7434 14.5149 19.7503 14.9342 20.2003 14.9427H20.2139C20.3554 14.9427 20.4673 14.9001 20.5479 14.816C20.6877 14.67 20.6786 14.4524 20.6701 14.2774C20.6685 14.2342 20.6667 14.1938 20.6667 14.158C20.6996 11.5216 18.4167 9.13018 15.7826 9.04157C15.7713 9.04157 15.761 9.04157 15.7508 9.04327C15.7405 9.04458 15.73 9.04515 15.7195 9.04498C15.6928 9.04498 15.661 9.04271 15.6264 9.04043C15.5855 9.03759 15.5383 9.03418 15.49 9.03418C15.0707 9.03418 14.9911 9.33245 14.9809 9.51036C14.9576 9.92109 15.3548 9.95009 15.5457 9.96373ZM19.6093 17.4922C19.5545 17.4504 19.5001 17.408 19.4463 17.3649C19.1667 17.1399 18.8695 16.9331 18.5826 16.7325L18.4036 16.6075C18.0355 16.349 17.7047 16.2234 17.3923 16.2234C16.9706 16.2234 16.6036 16.4564 16.3003 16.9148C16.1662 17.1183 16.0031 17.2172 15.8025 17.2172C15.6632 17.2123 15.5265 17.178 15.4014 17.1165C14.2139 16.5779 13.365 15.7518 12.8797 14.6615C12.6451 14.1342 12.7213 13.7899 13.1337 13.5092C13.3684 13.3501 13.8042 13.0541 13.7741 12.4865C13.7388 11.8427 12.3178 9.90463 11.719 9.68473C11.463 9.59136 11.1824 9.59054 10.9258 9.68245C10.2377 9.91373 9.74455 10.3205 9.49737 10.8575C9.25873 11.3768 9.27009 11.9865 9.52809 12.6205C10.2752 14.4541 11.3252 16.0529 12.6496 17.3723C13.9456 18.6637 15.5388 19.7211 17.3843 20.516C17.5508 20.5875 17.7253 20.6268 17.8531 20.6552C17.8963 20.6648 17.9337 20.6734 17.961 20.6807C17.976 20.6848 17.9915 20.6869 18.007 20.687H18.0218C18.89 20.687 19.9326 19.8938 20.2525 18.9899C20.5332 18.1978 20.0206 17.8064 19.6093 17.4922ZM15.9297 12.0586C15.7815 12.062 15.4718 12.07 15.3633 12.3847C15.3122 12.5325 15.3184 12.6597 15.3815 12.7649C15.4735 12.9183 15.6503 12.966 15.8105 12.9921C16.3928 13.0853 16.6923 13.4069 16.7519 14.0052C16.7798 14.2836 16.9678 14.4785 17.2082 14.4785C17.2265 14.4785 17.2446 14.4774 17.2627 14.4751C17.5525 14.441 17.6928 14.2279 17.6804 13.8421C17.6849 13.4399 17.4746 12.983 17.1162 12.6194C16.757 12.2546 16.3241 12.049 15.9297 12.0586Z" fill="#EFEFEF"/>
</svg>
