<svg width="30" height="30" viewBox="0 0 30 30" fill="none" xmlns="http://www.w3.org/2000/svg">
<path d="M15 30C23.2843 30 30 23.2843 30 15C30 6.71573 23.2843 0 15 0C6.71573 0 0 6.71573 0 15C0 23.2843 6.71573 30 15 30Z" fill="#1BD741"/>
<path d="M21.8182 14.8244C21.8182 18.4931 18.8214 21.4671 15.1239 21.4671C13.9502 21.4671 12.8475 21.1671 11.888 20.6405L8.18182 21.8182L9.39018 18.2543C8.78061 17.2534 8.42954 16.0794 8.42954 14.8244C8.42954 11.1558 11.4266 8.18188 15.1239 8.18188C18.8216 8.18188 21.8182 11.1558 21.8182 14.8244ZM15.1239 9.23979C12.0203 9.23979 9.49573 11.7451 9.49573 14.8244C9.49573 16.0464 9.89409 17.1781 10.5679 18.0987L9.86473 20.1728L12.0275 19.4853C12.9162 20.0689 13.9807 20.4092 15.1241 20.4092C18.2273 20.4092 20.7523 17.9042 20.7523 14.8248C20.7523 11.7453 18.2275 9.23979 15.1239 9.23979ZM18.5044 16.3543C18.463 16.2866 18.3538 16.2457 18.1898 16.1643C18.0256 16.083 17.2186 15.6889 17.0686 15.6348C16.9182 15.5805 16.8085 15.5532 16.6993 15.7162C16.59 15.8792 16.2755 16.2457 16.1795 16.3543C16.0838 16.4632 15.9882 16.4769 15.8239 16.3953C15.66 16.314 15.1314 16.1419 14.5045 15.5873C14.0168 15.1558 13.6875 14.6231 13.5916 14.4599C13.4961 14.2971 13.5816 14.209 13.6636 14.128C13.7375 14.0549 13.8279 13.9378 13.9098 13.8428C13.9921 13.7476 14.0194 13.6799 14.0738 13.5712C14.1288 13.4625 14.1014 13.3675 14.0602 13.2858C14.0193 13.2044 13.6907 12.4032 13.5541 12.0772C13.4175 11.7514 13.2809 11.8057 13.185 11.8057C13.0894 11.8057 12.9798 11.7921 12.8705 11.7921C12.7611 11.7921 12.5832 11.8328 12.4327 11.9957C12.2825 12.1587 11.8586 12.5526 11.8586 13.3537C11.8586 14.1549 12.4464 14.929 12.5286 15.0375C12.6106 15.146 13.6635 16.8435 15.3316 17.4955C17 18.1472 17 17.9298 17.3009 17.9025C17.6015 17.8753 18.2715 17.5087 18.4088 17.1287C18.5452 16.7481 18.5452 16.4222 18.5044 16.3543Z" fill="#EFEFEF"/>
</svg>
